<?xml version="1.0" standalone="no"?>
<!DOCTYPE svg PUBLIC "-//W3C//DTD SVG 20010904//EN"
 "http://www.w3.org/TR/2001/REC-SVG-20010904/DTD/svg10.dtd">
<svg version="1.0" xmlns="http://www.w3.org/2000/svg"
 width="896.000000pt" height="896.000000pt" viewBox="0 0 896.000000 896.000000"
 preserveAspectRatio="xMidYMid meet">
<metadata>
Created by potrace 1.14, written by Peter Selinger 2001-2017
</metadata>
<g transform="translate(0.000000,896.000000) scale(0.100000,-0.100000)"
fill="#000000" stroke="none">
<path d="M6945 8187 c-9 -12 -13 -17 -11 -11 3 7 -1 15 -10 18 -8 3 -13 2 -10
-3 3 -5 -1 -12 -10 -15 -10 -4 -13 -2 -8 6 5 7 3 8 -7 2 -8 -5 -27 -10 -44
-11 -32 -2 -50 -6 -77 -17 -9 -4 -22 -4 -29 0 -7 4 -9 3 -6 -3 4 -6 0 -13 -8
-17 -8 -3 -17 -1 -20 5 -4 5 -20 0 -38 -13 -18 -13 -27 -16 -23 -7 4 7 -2 3
-14 -11 -19 -21 -21 -22 -16 -5 6 19 5 19 -8 3 -7 -10 -18 -18 -24 -18 -5 0
-13 -7 -16 -16 -5 -13 -9 -14 -21 -4 -13 11 -14 10 -9 -4 4 -11 2 -16 -7 -14
-8 2 -13 -2 -12 -9 2 -7 -4 -10 -12 -7 -10 4 -15 0 -16 -12 0 -11 -3 -14 -6
-6 -3 8 -11 5 -25 -10 -11 -13 -16 -16 -12 -8 4 8 -5 2 -19 -13 -17 -17 -32
-25 -40 -21 -8 5 -7 2 2 -9 12 -15 12 -17 -2 -11 -10 3 -20 -2 -27 -15 -6 -12
-17 -21 -25 -21 -8 0 -14 -6 -13 -12 2 -7 -3 -12 -11 -10 -9 2 -11 -3 -7 -13
3 -9 2 -14 -3 -11 -5 3 -15 -2 -22 -11 -12 -14 -12 -16 1 -9 8 4 4 -1 -9 -12
-18 -15 -21 -21 -10 -25 9 -3 9 -6 2 -6 -7 -1 -25 -13 -40 -28 -15 -14 -22
-23 -15 -19 21 12 13 -4 -14 -29 -15 -14 -22 -25 -15 -25 9 0 8 -4 -1 -14 -7
-8 -16 -12 -20 -9 -4 2 -5 -3 -2 -11 4 -11 0 -16 -12 -16 -16 0 -17 -2 -4 -10
13 -8 12 -10 -3 -10 -10 0 -15 -4 -12 -10 7 -11 -38 -14 -49 -3 -10 11 -37 12
-30 2 3 -5 10 -6 16 -3 7 4 8 2 4 -4 -7 -12 -36 -5 -36 8 0 5 -8 7 -17 5 -10
-1 -24 3 -32 9 -11 8 -13 8 -8 -1 9 -14 -15 -12 -34 4 -8 6 -22 9 -31 8 -10
-2 -18 0 -18 5 0 10 -20 8 -37 -3 -9 -5 -11 -3 -7 6 3 10 -4 14 -28 15 -18 0
-34 6 -36 12 -3 7 -10 4 -19 -7 -8 -10 -12 -13 -9 -6 8 16 -14 29 -24 13 -5
-8 -9 -8 -13 4 -4 9 -13 13 -22 10 -8 -3 -23 -3 -33 2 -25 11 -36 11 -49 1
-13 -9 -14 -8 -17 12 0 5 -5 13 -10 18 -5 4 -7 3 -3 -2 3 -6 2 -17 -4 -25 -7
-12 -9 -12 -9 3 0 10 -4 15 -10 12 -5 -3 -10 -1 -10 4 0 6 -10 12 -22 12 -19
1 -20 2 -4 6 17 5 16 6 -4 16 -13 7 -25 19 -28 27 -3 10 0 9 10 -3 13 -17 14
-15 13 17 -1 29 1 33 12 25 9 -9 13 -8 13 0 0 7 5 9 10 6 6 -3 10 -2 10 4 0
17 32 42 47 37 8 -3 11 -1 8 4 -3 6 -1 10 5 10 6 0 8 4 5 10 -4 6 1 7 11 3 14
-5 16 -3 11 12 -7 16 -5 16 10 4 11 -9 14 -10 9 -1 -4 6 -2 12 4 12 6 0 10 6
8 13 -2 6 2 12 7 12 6 0 9 -4 7 -10 -2 -5 5 -1 16 10 11 11 17 24 15 28 -3 5
5 4 17 -3 18 -10 21 -9 15 1 -5 7 -1 17 10 26 11 7 15 13 9 13 -5 0 -2 5 6 10
13 8 13 10 -2 10 -9 0 -20 4 -23 10 -4 6 1 7 12 3 16 -5 16 -4 -2 14 -11 11
-21 17 -23 12 -2 -4 -10 -5 -18 -2 -7 3 -11 10 -7 17 4 6 -1 5 -10 -3 -10 -8
-20 -11 -24 -8 -3 4 -12 2 -19 -4 -8 -7 -14 -6 -20 2 -5 8 -3 9 6 4 9 -6 11
-4 5 5 -7 11 -10 10 -19 -1 -6 -8 -19 -13 -30 -11 -10 2 -16 0 -13 -5 3 -5 -3
-10 -14 -10 -11 -1 -17 2 -14 8 4 5 1 9 -4 9 -6 0 -11 -6 -11 -14 0 -8 -5 -18
-12 -22 -7 -4 -8 -3 -4 4 4 7 1 12 -8 12 -8 0 -18 -5 -22 -12 -5 -7 -3 -8 6
-3 9 5 11 4 6 -4 -6 -9 -11 -9 -22 0 -10 8 -14 8 -14 1 0 -7 -7 -9 -17 -5 -9
4 -14 2 -10 -3 3 -6 -3 -11 -14 -11 -12 -1 -17 3 -13 10 3 7 -4 1 -16 -13 -12
-14 -19 -19 -15 -12 7 14 -11 17 -19 3 -4 -5 -17 -8 -31 -6 -22 2 -23 0 -13
-13 11 -13 11 -14 0 -8 -7 4 -20 2 -28 -5 -12 -10 -13 -9 -7 7 6 16 1 15 -28
-8 -25 -18 -40 -23 -51 -17 -11 6 -23 2 -41 -17 -18 -17 -27 -21 -30 -12 -3 8
-6 6 -6 -5 -1 -10 -5 -16 -10 -13 -14 9 -42 -5 -35 -16 4 -6 -4 -4 -17 3 -21
11 -23 11 -11 -3 11 -14 9 -16 -17 -14 -16 1 -28 -1 -25 -5 5 -9 -25 -21 -37
-13 -5 3 -9 1 -9 -5 0 -5 -9 -8 -20 -6 -11 2 -19 1 -16 -3 2 -4 -7 -13 -21
-19 -21 -10 -24 -10 -19 3 4 12 1 11 -19 -2 -13 -9 -30 -12 -36 -8 -9 5 -10 2
-5 -11 5 -15 4 -16 -8 -6 -11 9 -20 10 -35 1 -12 -6 -21 -7 -21 -3 0 4 -5 1
-10 -7 -7 -12 -12 -12 -22 -2 -10 10 -16 8 -30 -10 -16 -20 -17 -21 -12 -3 6
18 4 17 -21 -5 -16 -14 -25 -20 -21 -13 4 8 -1 11 -14 10 -11 -1 -20 -5 -20
-10 0 -5 -6 -7 -14 -4 -7 3 -19 0 -25 -6 -9 -9 -11 -7 -6 8 6 18 5 18 -7 4 -7
-9 -25 -16 -38 -15 -17 1 -24 -4 -22 -14 2 -12 -1 -11 -11 2 -13 17 -15 16
-25 -5 -6 -12 -11 -16 -11 -9 -1 6 -8 12 -17 12 -8 0 -13 -4 -9 -9 3 -6 -4 -8
-15 -6 -11 2 -20 0 -20 -6 0 -5 -5 -9 -11 -9 -5 0 -7 6 -4 13 4 6 -1 3 -9 -7
-11 -14 -16 -15 -16 -6 0 10 -3 11 -11 3 -6 -6 -18 -9 -27 -6 -11 5 -13 2 -7
-6 6 -10 3 -11 -14 -2 -18 10 -21 9 -22 -6 0 -11 -3 -13 -6 -5 -4 10 -8 10
-21 0 -13 -11 -14 -11 -7 2 6 11 3 10 -11 -2 -16 -14 -23 -15 -34 -5 -10 10
-11 9 -5 -2 5 -9 3 -12 -6 -9 -8 3 -20 -2 -27 -11 -11 -14 -11 -14 -6 2 7 21
-11 23 -20 2 -3 -8 -10 -15 -16 -15 -6 0 -8 6 -4 13 4 6 -1 5 -12 -4 -10 -8
-31 -15 -46 -14 -16 0 -28 -3 -28 -8 0 -5 -7 -4 -15 3 -10 8 -15 9 -15 1 0 -6
-13 -9 -30 -7 -16 2 -27 -1 -24 -5 3 -5 -8 -9 -23 -9 -16 0 -35 -6 -42 -12
-11 -11 -12 -10 -6 2 5 8 -3 5 -17 -8 -17 -15 -28 -20 -33 -13 -3 6 -11 11
-16 11 -6 0 -7 -5 -4 -10 8 -13 -18 -8 -27 5 -4 6 -8 2 -8 -8 0 -14 -4 -16
-19 -8 -14 8 -22 7 -31 -4 -7 -8 -20 -15 -29 -15 -9 0 -23 -6 -30 -12 -11 -10
-12 -10 -7 -1 5 9 2 11 -8 7 -9 -3 -16 -10 -16 -15 0 -5 -5 -9 -11 -9 -5 0 -7
5 -4 10 3 6 1 10 -4 10 -6 0 -11 -5 -11 -11 0 -6 -7 -8 -15 -5 -9 3 -18 -1
-22 -9 -4 -13 -8 -13 -22 -3 -9 7 -13 8 -9 4 12 -14 -25 -36 -39 -24 -9 7 -13
7 -13 -3 0 -10 -3 -10 -12 -1 -9 9 -16 8 -29 -4 -9 -8 -37 -16 -62 -17 -25 -1
-45 -6 -44 -12 1 -5 -6 -9 -15 -7 -10 2 -18 -2 -18 -8 0 -5 -5 -10 -11 -10 -5
0 -7 5 -3 11 3 6 -6 3 -22 -7 -15 -11 -31 -19 -34 -19 -3 0 -4 -4 -2 -8 1 -4
-7 -3 -19 4 -17 9 -20 8 -14 -2 6 -9 2 -11 -13 -7 -16 5 -19 2 -14 -11 5 -14
4 -14 -11 -2 -9 7 -17 10 -17 5 0 -5 -12 -18 -27 -28 -14 -11 -23 -14 -19 -8
4 7 2 12 -3 12 -6 0 -11 -5 -11 -11 0 -5 -5 -7 -12 -3 -8 5 -9 2 -4 -11 5 -14
4 -16 -8 -6 -11 9 -15 8 -20 -4 -3 -9 -10 -14 -16 -10 -5 3 -18 -3 -30 -15
-11 -11 -20 -16 -20 -10 0 5 -7 7 -16 3 -13 -5 -13 -7 -2 -14 9 -6 7 -9 -9 -9
-13 0 -23 -4 -23 -10 0 -5 -7 -6 -17 -3 -9 4 -14 2 -11 -3 9 -14 -15 -31 -39
-29 -12 1 -22 -1 -21 -4 3 -28 -2 -33 -19 -20 -11 10 -14 10 -9 2 4 -8 2 -13
-4 -13 -6 0 -8 -4 -5 -10 3 -5 1 -10 -5 -10 -6 0 -8 -5 -4 -12 4 -7 3 -8 -5
-4 -6 4 -9 13 -5 19 3 7 -1 4 -9 -5 -8 -10 -18 -14 -22 -10 -5 4 -5 -1 -2 -10
4 -12 2 -15 -7 -12 -8 3 -17 1 -21 -5 -10 -17 -41 -13 -56 6 -12 14 -12 16 0
8 11 -6 13 -4 8 8 -3 10 -2 17 4 17 6 0 3 7 -6 16 -10 10 -12 20 -7 28 5 6 6
20 1 31 -11 28 -11 37 1 30 6 -3 7 1 4 9 -3 9 -9 16 -13 16 -4 0 -8 7 -8 15 0
8 4 12 9 9 4 -3 8 -1 8 5 0 5 -6 12 -12 14 -9 4 -9 6 1 6 11 1 10 5 -5 17 -10
8 -13 12 -5 8 11 -5 13 -2 8 17 -4 13 -7 30 -7 37 0 8 -5 10 -12 6 -10 -6 -10
-5 -1 7 16 20 12 59 -7 60 -8 0 -10 3 -5 5 6 2 9 20 7 39 -2 20 -8 32 -14 29
-6 -4 -5 2 1 14 8 15 8 23 0 28 -6 3 -9 17 -6 30 2 13 1 21 -3 19 -5 -3 -11 2
-14 11 -3 8 -2 12 4 9 6 -4 6 2 1 17 -5 13 -15 22 -22 20 -10 -2 -10 0 -1 11
10 11 9 17 -3 27 -8 7 -12 16 -9 21 3 5 -2 6 -11 3 -11 -5 -14 -2 -9 9 3 10
-2 21 -15 29 -12 7 -21 16 -21 21 0 12 -47 57 -60 57 -6 0 -8 5 -5 10 3 6 -1
10 -10 10 -8 0 -18 7 -22 16 -3 8 -11 13 -18 10 -9 -3 -11 2 -8 17 5 18 3 20
-7 10 -11 -10 -18 -7 -36 12 -12 13 -25 21 -28 18 -3 -4 -6 -1 -6 6 0 7 -4 10
-9 7 -5 -3 -12 1 -15 10 -5 13 -9 14 -21 4 -12 -10 -13 -8 -10 12 4 22 4 22
-10 4 -14 -18 -15 -19 -15 -2 0 13 -5 17 -19 13 -12 -3 -22 1 -25 10 -5 11
-10 12 -27 2 -12 -6 -19 -7 -16 -1 4 5 -5 14 -18 20 -15 7 -26 8 -30 2 -4 -6
-11 -10 -16 -10 -6 0 -7 5 -3 12 5 8 2 9 -9 5 -10 -4 -17 -1 -17 6 0 8 -4 6
-10 -3 -5 -8 -10 -10 -10 -4 0 7 -11 9 -26 6 -21 -4 -25 -2 -19 9 7 12 6 12
-7 1 -13 -10 -17 -10 -21 0 -4 10 -6 10 -6 -1 -1 -11 -4 -11 -16 -1 -8 7 -22
10 -30 6 -8 -3 -15 -2 -15 2 0 4 -9 8 -20 8 -14 0 -19 -5 -15 -15 5 -13 3 -13
-12 1 -10 8 -25 19 -33 23 -12 7 -13 6 -3 -6 10 -12 0 -14 -68 -12 -61 2 -78
0 -73 -10 6 -9 5 -9 -7 0 -12 10 -18 10 -29 0 -10 -10 -11 -9 -5 3 8 13 6 13
-8 1 -9 -7 -24 -11 -32 -7 -8 3 -15 0 -15 -7 0 -8 -4 -6 -10 3 -7 12 -10 12
-10 1 0 -8 -6 -11 -16 -7 -13 5 -14 3 -6 -7 8 -10 6 -13 -8 -13 -10 0 -16 4
-14 8 3 4 1 8 -4 8 -5 0 -14 -10 -21 -22 -8 -16 -10 -17 -6 -4 4 15 3 17 -8 8
-8 -7 -17 -9 -20 -5 -4 3 -7 1 -7 -6 0 -7 -5 -9 -12 -5 -8 5 -9 2 -4 -11 5
-15 4 -16 -8 -6 -11 10 -17 8 -25 -6 -7 -12 -10 -14 -11 -4 0 9 -7 6 -20 -9
-13 -15 -20 -18 -20 -9 0 11 -2 11 -10 -1 -5 -8 -14 -15 -20 -15 -6 0 -15 -7
-20 -15 -7 -11 -10 -11 -10 -2 0 10 -3 10 -14 0 -8 -7 -12 -16 -10 -19 1 -3
-7 -5 -19 -5 -13 1 -21 -4 -19 -12 1 -8 -2 -11 -8 -7 -5 3 -10 0 -10 -7 0 -9
-3 -9 -10 2 -7 11 -10 11 -10 2 0 -7 -5 -10 -12 -6 -7 4 -8 3 -4 -5 4 -6 0
-14 -9 -17 -9 -4 -14 -13 -10 -22 4 -12 3 -13 -10 -2 -11 9 -15 9 -15 1 0 -7
-5 -9 -12 -5 -8 5 -7 0 2 -11 14 -17 14 -18 -6 -7 -18 10 -21 9 -20 -6 0 -10
-5 -16 -13 -14 -12 3 -12 0 -2 -11 9 -12 8 -15 -6 -13 -10 0 -17 -4 -16 -11 1
-6 -4 -14 -12 -17 -8 -3 -15 0 -15 6 0 6 -3 8 -6 5 -4 -4 -1 -15 7 -24 7 -10
9 -15 5 -11 -5 5 -16 -1 -23 -12 -8 -11 -19 -17 -25 -14 -6 4 -8 2 -4 -4 3 -6
2 -13 -4 -17 -6 -4 -8 -10 -5 -14 2 -5 -3 -17 -11 -27 -9 -10 -12 -12 -8 -4 4
9 3 12 -2 7 -5 -5 -10 -13 -10 -18 -1 -5 -3 -11 -4 -14 -1 -3 -3 -15 -4 -27
-1 -13 -7 -22 -14 -21 -7 2 -12 -4 -12 -13 0 -8 4 -13 10 -9 5 3 5 -7 -1 -25
-6 -16 -16 -30 -21 -30 -6 0 -4 -8 3 -17 8 -10 9 -14 2 -10 -6 4 -14 3 -18 -3
-3 -5 0 -10 7 -10 9 -1 7 -5 -4 -14 -18 -14 -25 -32 -9 -21 5 3 13 0 17 -6 4
-8 3 -9 -4 -5 -7 4 -13 1 -13 -8 -1 -16 -4 -28 -9 -43 -1 -5 -2 -16 -1 -25 1
-10 -2 -18 -7 -18 -10 0 -8 -42 4 -61 4 -7 3 -9 -4 -5 -6 3 -13 2 -17 -4 -3
-5 -1 -10 6 -10 8 0 7 -5 -2 -17 -12 -15 -12 -16 1 -8 13 7 13 6 2 -7 -10 -13
-10 -17 0 -21 10 -4 10 -6 -1 -6 -11 -1 -11 -4 0 -18 12 -14 12 -16 0 -8 -11
6 -13 4 -8 -8 4 -10 1 -17 -6 -18 -7 0 -3 -4 8 -9 11 -5 15 -9 9 -9 -7 -1 -15
-8 -18 -17 -3 -8 -2 -12 4 -9 13 8 13 -8 -1 -22 -8 -8 -7 -13 2 -18 8 -6 10
-4 4 5 -5 9 -4 11 3 6 9 -5 8 -12 -1 -27 -10 -16 -9 -21 2 -28 9 -6 10 -11 2
-15 -10 -6 1 -38 19 -56 3 -3 6 -16 7 -30 4 -48 8 -65 18 -72 6 -5 4 -8 -5 -8
-12 -1 -11 -3 3 -11 9 -6 15 -14 12 -19 -5 -8 19 -62 26 -57 2 1 -2 -4 -10
-10 -13 -11 -12 -13 3 -13 12 0 16 -5 12 -15 -3 -10 1 -15 12 -15 15 0 15 -2
2 -10 -10 -6 -11 -10 -2 -10 6 0 12 -7 12 -15 0 -8 6 -15 13 -15 9 0 9 -2 -1
-9 -11 -7 -11 -9 2 -14 8 -3 17 -1 20 6 3 9 5 9 5 0 1 -6 -4 -15 -9 -18 -6 -4
-4 -12 5 -21 8 -9 13 -19 10 -24 -3 -5 0 -12 6 -16 8 -5 10 -2 5 7 -4 8 0 5 8
-5 9 -11 16 -25 16 -32 0 -7 10 -20 22 -28 12 -9 18 -16 13 -16 -6 0 -3 -6 6
-13 8 -7 18 -20 22 -29 3 -10 12 -18 19 -18 9 0 9 3 -2 11 -13 9 -13 10 0 6 8
-2 15 -8 15 -14 0 -5 8 -17 18 -27 9 -10 14 -22 11 -28 -4 -7 -2 -8 5 -4 15
10 71 -31 71 -52 0 -15 2 -15 10 -2 9 13 10 13 11 0 1 -8 1 -18 1 -21 -1 -4 7
-5 17 -2 11 3 24 -5 35 -21 9 -14 25 -26 36 -26 11 0 20 -4 20 -9 0 -8 28 -19
69 -27 7 -1 18 -7 24 -13 6 -6 21 -11 34 -11 13 0 23 -5 23 -12 0 -8 3 -9 10
-2 12 12 78 1 114 -18 16 -8 18 -7 12 8 -7 17 -6 17 13 0 14 -13 21 -14 27 -5
5 8 3 10 -6 4 -8 -5 -11 -4 -6 3 9 15 38 3 29 -12 -3 -6 -1 -6 8 2 7 6 32 12
55 12 23 0 44 3 47 8 2 4 2 2 1 -5 -4 -14 13 -27 18 -15 1 5 17 12 35 15 26 5
31 3 26 -8 -3 -8 -1 -15 5 -15 6 0 13 6 15 13 4 9 6 9 6 -1 1 -7 -6 -15 -14
-18 -8 -4 -15 -10 -15 -16 0 -5 -10 -19 -23 -31 -13 -12 -16 -16 -7 -9 26 19
32 14 10 -8 -11 -11 -23 -20 -28 -20 -4 0 -13 -9 -20 -21 -10 -15 -10 -19 -1
-14 8 6 10 4 5 -4 -5 -7 -14 -10 -22 -7 -12 5 -12 2 -3 -17 11 -20 11 -21 -4
-9 -13 11 -17 10 -26 -6 -6 -11 -7 -22 -3 -26 3 -4 -1 -4 -11 0 -13 5 -16 2
-10 -12 4 -12 3 -15 -5 -10 -7 4 -12 1 -12 -7 0 -15 -40 -56 -41 -41 0 5 -5
-2 -11 -16 -6 -14 -10 -29 -9 -34 1 -5 -5 -6 -14 -2 -11 4 -15 1 -13 -12 2 -9
-2 -16 -9 -15 -6 1 -16 -11 -22 -27 -5 -17 -13 -30 -16 -30 -3 0 -3 5 0 10 3
6 4 10 2 10 -7 0 -51 -73 -52 -85 0 -5 -8 -9 -17 -9 -10 1 -14 -4 -11 -12 3
-8 -1 -14 -11 -14 -9 0 -16 -5 -16 -11 0 -5 6 -7 12 -4 7 3 3 -2 -9 -11 -13
-9 -23 -23 -23 -31 0 -7 -7 -16 -15 -19 -8 -4 -12 -10 -9 -15 3 -5 0 -9 -6 -9
-7 0 -9 -7 -6 -16 5 -13 4 -14 -7 -6 -10 9 -14 8 -15 -3 -1 -8 -3 -22 -4 -30
-1 -11 -5 -12 -15 -3 -11 8 -12 7 -7 -6 3 -9 1 -16 -6 -16 -6 0 -8 -4 -5 -10
3 -5 1 -10 -6 -10 -7 0 -9 -3 -5 -7 3 -4 -4 -13 -16 -21 -13 -7 -15 -11 -5 -8
16 5 16 4 1 -19 -16 -24 -32 -36 -18 -13 4 7 3 8 -5 4 -6 -4 -9 -11 -6 -16 3
-5 -3 -18 -14 -29 -11 -11 -17 -22 -14 -25 4 -3 1 -6 -5 -6 -7 0 -12 -9 -12
-21 0 -13 -4 -18 -12 -13 -7 5 -9 0 -6 -14 4 -16 2 -19 -10 -15 -11 5 -14 2
-9 -10 4 -11 2 -14 -8 -11 -10 4 -13 0 -10 -14 2 -11 -3 -23 -11 -26 -8 -3
-14 -13 -14 -23 0 -15 -2 -16 -10 -3 -5 8 -10 10 -10 4 0 -5 6 -16 12 -23 11
-11 11 -13 0 -7 -7 4 -12 1 -12 -9 0 -8 -6 -18 -14 -21 -9 -3 -12 -12 -9 -22
5 -12 2 -14 -11 -9 -10 4 -15 3 -11 -3 3 -6 0 -10 -7 -10 -10 0 -9 -3 2 -10
12 -8 12 -10 -3 -16 -9 -3 -17 -10 -17 -16 0 -5 6 -6 13 -2 7 4 9 3 4 -2 -5
-5 -14 -9 -20 -9 -7 0 -12 -10 -12 -22 0 -12 -4 -25 -9 -30 -5 -5 -6 -2 -1 6
5 9 4 12 -3 7 -6 -4 -8 -14 -5 -23 5 -13 2 -15 -11 -10 -9 4 -15 3 -11 -2 3
-5 -1 -12 -7 -14 -10 -4 -10 -6 0 -6 18 -1 15 -21 -4 -21 -10 0 -14 -5 -10
-16 4 -10 2 -13 -6 -8 -7 5 -9 2 -6 -7 6 -15 -16 -42 -25 -32 -3 3 -3 -5 0
-18 5 -17 3 -20 -7 -14 -10 6 -12 4 -7 -8 4 -12 1 -17 -11 -17 -15 0 -15 -2
-2 -10 11 -7 11 -10 2 -10 -8 0 -10 -5 -6 -12 5 -7 2 -9 -7 -6 -14 5 -17 -2
-21 -49 -1 -6 -7 -9 -15 -6 -8 3 -11 0 -8 -9 3 -8 -3 -25 -15 -38 -23 -26 -26
-36 -7 -24 7 5 5 2 -4 -7 -12 -11 -15 -19 -7 -27 7 -7 5 -10 -7 -9 -10 1 -20
-4 -23 -12 -3 -9 0 -11 9 -7 8 4 4 -1 -8 -12 -12 -11 -19 -22 -16 -26 3 -3 1
-11 -4 -18 -6 -7 -9 -21 -8 -30 2 -11 -2 -15 -12 -11 -12 5 -14 1 -8 -17 4
-14 3 -20 -3 -16 -5 3 -12 -3 -15 -14 -3 -10 0 -21 7 -24 6 -2 3 -5 -7 -5 -9
-1 -16 -4 -16 -8 1 -5 1 -10 -1 -13 -7 -20 -7 -59 1 -55 5 4 9 1 9 -5 0 -6 4
-8 10 -5 5 3 10 0 10 -7 0 -10 2 -10 9 1 7 11 9 11 14 0 4 -10 6 -8 6 4 1 11
5 15 13 11 8 -5 9 -2 5 9 -3 9 -3 16 1 16 4 -1 14 -1 22 0 13 1 13 2 0 11 -13
8 -12 10 3 10 10 0 16 4 13 9 -3 5 1 12 10 15 21 8 24 8 24 -5 0 -5 -4 -7 -10
-4 -5 3 -10 -1 -10 -9 0 -9 5 -16 10 -16 7 0 7 -6 0 -20 -8 -15 -8 -20 2 -20
10 0 10 -2 -1 -9 -9 -6 -10 -10 -2 -12 7 -3 9 -12 6 -22 -4 -9 -12 -14 -17
-11 -6 4 -5 -3 1 -15 7 -13 8 -21 2 -21 -6 0 -8 -7 -5 -15 4 -8 1 -15 -6 -15
-6 0 -8 -4 -5 -10 3 -5 1 -10 -4 -10 -6 0 -11 -5 -11 -11 0 -5 5 -7 10 -4 6 3
10 1 10 -4 0 -6 -4 -11 -9 -11 -5 0 -12 -7 -15 -16 -3 -8 -2 -12 4 -9 6 3 7
-1 4 -9 -3 -9 -9 -14 -13 -11 -4 2 -8 -2 -8 -10 0 -8 5 -11 11 -8 6 4 3 -3 -7
-14 -14 -16 -15 -23 -6 -28 8 -6 5 -14 -12 -27 -21 -17 -21 -19 -4 -14 18 5
18 5 4 -6 -9 -7 -15 -25 -15 -39 1 -20 -2 -25 -13 -21 -10 4 -13 1 -8 -12 4
-10 3 -15 -3 -11 -7 4 -9 -3 -6 -20 4 -20 1 -25 -9 -21 -11 4 -12 0 -5 -19 7
-19 5 -27 -10 -38 -11 -8 -17 -17 -14 -20 4 -4 1 -13 -5 -21 -7 -8 -10 -20 -6
-26 3 -5 -2 -10 -12 -11 -10 0 -13 -3 -7 -5 13 -5 7 -44 -6 -44 -4 0 -6 -11
-5 -25 2 -14 -1 -25 -6 -25 -5 0 -9 -7 -9 -16 0 -9 -5 -12 -12 -8 -10 6 -10 5
-1 -7 10 -12 10 -18 0 -28 -9 -11 -9 -14 1 -18 6 -3 10 -9 6 -14 -3 -5 0 -9 6
-9 6 0 8 -4 5 -10 -4 -7 2 -7 18 -1 14 6 27 7 31 4 3 -3 24 10 48 28 23 19 39
28 35 22 -5 -7 -3 -23 3 -35 10 -21 10 -22 -3 -5 -14 17 -15 16 -13 -7 0 -13
4 -22 7 -20 4 2 10 -3 13 -12 3 -8 2 -13 -3 -10 -5 3 -11 -1 -15 -9 -3 -8 -1
-17 4 -20 6 -4 6 -14 -1 -26 -5 -11 -9 -28 -7 -38 2 -10 -4 -26 -12 -36 -13
-17 -13 -18 0 -10 13 7 13 6 2 -7 -10 -13 -10 -17 0 -21 9 -4 7 -6 -4 -6 -11
-1 -15 -7 -11 -21 3 -11 0 -20 -6 -20 -6 0 -8 -7 -4 -17 4 -10 2 -14 -4 -10
-6 4 -9 -3 -7 -18 1 -14 -3 -25 -9 -25 -5 0 -7 -3 -4 -7 4 -3 -1 -16 -10 -27
-15 -17 -15 -19 -1 -8 12 10 18 10 24 1 4 -7 3 -9 -2 -6 -6 3 -16 -3 -23 -15
-7 -11 -8 -17 -2 -14 7 5 8 1 5 -9 -4 -9 -13 -14 -20 -11 -8 3 -11 0 -7 -9 3
-8 9 -12 14 -9 5 3 9 0 9 -5 0 -6 -5 -11 -11 -11 -5 0 -7 -4 -4 -10 3 -5 2
-10 -4 -10 -5 0 -8 -9 -6 -21 3 -16 0 -19 -12 -14 -14 5 -13 2 3 -16 10 -12
13 -19 6 -15 -8 5 -12 0 -12 -14 0 -11 -8 -32 -17 -46 -14 -22 -14 -27 -2 -36
11 -7 9 -9 -8 -5 -18 4 -20 2 -14 -17 6 -14 3 -25 -8 -33 -14 -12 -14 -12 2
-7 13 5 16 2 11 -10 -3 -9 -11 -13 -16 -10 -6 4 -5 -3 1 -15 10 -17 9 -20 -4
-15 -17 7 -17 -16 0 -28 6 -5 5 -8 -4 -8 -8 0 -11 -6 -7 -16 3 -8 2 -13 -3
-10 -10 6 -25 -49 -21 -78 1 -11 -3 -16 -9 -12 -6 4 -11 2 -11 -3 0 -6 6 -11
13 -11 6 0 4 -5 -6 -11 -15 -9 -16 -13 -5 -27 7 -9 8 -13 2 -9 -7 4 -15 0 -18
-9 -4 -10 -2 -13 7 -8 8 5 7 2 -2 -9 -8 -10 -11 -20 -8 -24 4 -3 -1 -12 -11
-19 -15 -12 -15 -15 -2 -24 8 -5 11 -10 5 -10 -5 0 -15 -11 -22 -25 -6 -14 -7
-23 -2 -19 5 3 6 -2 3 -10 -3 -9 -11 -16 -16 -16 -7 0 -7 -4 0 -13 12 -14 -10
-52 -23 -39 -4 4 -2 -3 4 -16 11 -21 8 -27 -13 -23 -5 1 -4 -5 3 -13 10 -12 9
-16 -6 -25 -10 -6 -12 -11 -5 -11 6 0 12 -5 12 -11 0 -5 -4 -8 -9 -5 -5 3 -12
-1 -15 -10 -4 -10 -2 -13 7 -8 6 4 1 -5 -13 -21 -14 -16 -19 -25 -12 -21 7 4
12 1 12 -8 0 -9 -4 -16 -9 -16 -5 0 -8 -11 -7 -25 2 -13 -1 -22 -5 -19 -11 6
-23 -41 -14 -55 3 -6 0 -8 -9 -5 -11 4 -14 -1 -12 -21 3 -20 0 -25 -12 -20
-12 4 -13 3 -2 -10 10 -12 10 -15 0 -15 -9 0 -9 -4 1 -17 10 -11 10 -14 2 -9
-7 4 -13 4 -14 -1 -3 -35 -12 -58 -27 -70 -16 -14 -16 -14 3 -9 20 6 20 6 1
-9 -11 -8 -14 -15 -7 -15 7 0 9 -5 6 -10 -4 -6 -10 -8 -15 -5 -4 3 -6 -5 -2
-17 3 -13 1 -19 -6 -15 -6 5 -9 -2 -7 -18 1 -17 -3 -25 -14 -26 -9 0 -11 -3
-4 -5 7 -3 9 -12 6 -20 -3 -7 -9 -12 -13 -9 -4 3 -7 -8 -6 -24 1 -17 -1 -28
-5 -25 -4 2 -10 -3 -13 -12 -9 -23 -8 -26 7 -19 6 4 4 0 -7 -9 -10 -8 -15 -19
-11 -25 3 -6 2 -11 -4 -11 -6 0 -8 -6 -5 -14 3 -8 0 -17 -7 -22 -8 -5 -10 -3
-4 6 5 9 4 11 -4 6 -6 -4 -8 -13 -4 -19 11 -17 13 -38 3 -32 -5 3 -11 1 -15
-5 -3 -5 0 -10 7 -10 8 0 9 -3 3 -8 -5 -4 -15 -17 -22 -29 -10 -17 -10 -23 0
-26 7 -3 4 -6 -6 -6 -14 -1 -16 -5 -7 -21 9 -16 8 -18 -5 -14 -11 5 -14 2 -8
-12 5 -13 3 -15 -8 -9 -8 4 -11 5 -7 0 4 -4 2 -15 -5 -23 -10 -13 -9 -14 3 -7
12 7 13 6 3 -7 -7 -8 -10 -18 -6 -21 3 -4 0 -7 -7 -7 -7 0 -10 -3 -7 -7 4 -3
1 -13 -5 -21 -15 -17 -20 -44 -7 -36 5 3 6 10 3 16 -5 7 -2 8 5 3 9 -5 5 -16
-16 -38 -15 -16 -22 -27 -16 -23 9 5 11 2 7 -8 -3 -9 -10 -13 -15 -10 -5 3 -6
-2 -3 -10 7 -18 -19 -49 -32 -38 -5 4 -2 -1 5 -11 11 -14 11 -17 1 -17 -8 0
-10 -3 -7 -7 4 -3 -1 -12 -11 -20 -9 -8 -12 -12 -6 -9 6 3 11 -1 11 -9 0 -8
-3 -12 -7 -10 -3 2 -12 0 -20 -6 -12 -7 -11 -9 5 -9 19 -1 19 -1 2 -14 -14
-11 -15 -15 -5 -19 10 -4 10 -6 -1 -6 -11 -1 -11 -4 0 -18 8 -10 9 -14 2 -10
-6 4 -15 2 -19 -4 -4 -8 -3 -9 4 -5 7 4 12 3 12 -1 0 -5 16 -7 35 -5 22 3 35
10 35 19 0 8 5 11 10 8 6 -3 10 -1 10 4 0 6 8 11 17 11 15 0 14 2 -3 16 -10 8
-14 13 -9 11 6 -3 16 1 23 9 7 8 10 14 6 14 -4 0 0 8 10 19 10 11 14 25 10 36
-6 14 -4 17 9 12 11 -4 15 -1 12 13 -2 10 5 30 16 45 15 18 17 25 7 26 -7 0
-3 5 10 12 16 7 22 17 19 29 -3 10 2 24 12 31 10 6 22 20 28 31 9 16 11 17 16
2 4 -10 3 -15 -3 -11 -14 9 -12 -8 3 -24 10 -11 9 -13 -1 -7 -7 4 -12 1 -12
-8 0 -9 5 -16 11 -16 6 0 3 -7 -5 -16 -20 -20 -20 -28 0 -20 12 4 10 -1 -6
-23 -13 -19 -17 -32 -10 -36 8 -5 7 -12 -2 -23 -8 -9 -8 -13 -1 -9 7 5 9 0 6
-13 -3 -11 -10 -17 -16 -13 -6 4 -7 1 -3 -6 11 -17 15 -61 6 -61 -4 0 -11 -7
-14 -16 -3 -8 -2 -13 3 -9 11 6 8 -22 -4 -32 -4 -4 -5 -2 0 6 5 9 4 12 -2 8
-5 -3 -8 -19 -5 -35 2 -16 -1 -33 -7 -36 -6 -4 -11 -12 -11 -17 0 -6 6 -7 13
-3 9 6 9 5 0 -8 -7 -8 -10 -18 -6 -21 3 -4 1 -7 -7 -7 -10 0 -10 -3 0 -15 9
-11 9 -15 1 -15 -7 0 -9 -4 -6 -10 3 -5 0 -10 -7 -10 -9 0 -9 -3 2 -10 10 -6
11 -10 3 -10 -7 0 -13 -10 -13 -23 0 -13 -6 -29 -12 -36 -10 -11 -10 -13 0 -7
6 4 12 3 12 -1 0 -5 -6 -15 -12 -22 -10 -11 -10 -12 -1 -7 9 5 11 2 7 -8 -3
-9 -10 -16 -15 -16 -5 0 -9 -4 -9 -10 0 -5 6 -8 13 -6 6 1 9 1 4 -1 -4 -3 -4
-10 -1 -15 4 -6 2 -8 -3 -5 -6 4 -13 0 -17 -8 -3 -8 0 -15 7 -15 8 0 9 -3 1
-8 -6 -4 -10 -17 -9 -29 1 -15 -4 -23 -14 -24 -11 0 -12 -2 -3 -6 6 -2 9 -10
5 -16 -7 -11 -9 -31 -12 -100 -1 -16 -5 -26 -10 -23 -4 3 -8 -5 -7 -17 1 -12
-3 -25 -9 -29 -6 -5 -5 -8 4 -8 10 0 10 -6 -4 -26 -9 -15 -12 -23 -6 -20 6 4
11 3 11 -3 0 -5 -4 -13 -10 -16 -5 -3 -10 -24 -10 -46 0 -30 -3 -38 -13 -33
-8 5 -8 2 2 -9 7 -9 10 -17 5 -17 -5 0 -2 -5 6 -10 11 -7 11 -10 2 -10 -7 0
-10 -4 -7 -10 3 -5 1 -10 -6 -10 -8 0 -7 -5 2 -17 8 -9 9 -14 3 -10 -7 4 -14
0 -18 -8 -3 -8 0 -17 6 -21 7 -5 7 -8 -1 -13 -5 -4 -8 -17 -4 -29 l5 -22 4331
0 c4190 0 4329 1 4314 18 -19 21 -23 37 -6 26 8 -5 8 -1 0 14 -9 16 -7 24 7
38 16 17 16 17 0 11 -20 -7 -35 9 -16 16 10 4 10 6 1 6 -7 1 -13 6 -13 12 0 5
4 8 8 5 5 -3 9 1 9 9 0 8 -4 12 -10 8 -5 -3 -8 5 -7 18 4 46 0 80 -9 75 -12
-8 -8 37 4 46 6 5 5 8 -2 8 -7 0 -13 5 -13 11 0 5 6 7 13 3 10 -6 10 -4 0 7
-15 16 -17 53 -3 44 6 -3 10 -2 10 4 0 5 -6 11 -12 13 -8 3 -4 9 9 17 19 9 22
9 17 -3 -6 -15 5 -25 36 -31 11 -2 18 0 15 6 -4 5 2 9 13 9 15 0 18 7 18 39 0
23 -4 37 -10 34 -5 -4 -7 1 -3 9 3 9 0 21 -6 27 -8 8 -8 11 1 11 7 0 12 4 12
10 0 5 -6 7 -13 4 -8 -3 -13 4 -14 17 -1 12 -8 26 -15 30 -10 7 -10 9 2 9 10
0 7 5 -8 16 -14 10 -22 25 -22 45 0 21 -4 28 -12 23 -8 -5 -9 -2 -5 9 3 10 2
17 -4 17 -6 0 -7 5 -4 10 3 6 1 10 -4 10 -6 0 -10 3 -10 8 3 18 -2 33 -10 28
-4 -3 -7 6 -5 19 1 14 -3 28 -8 32 -7 4 -8 1 -3 -7 6 -9 4 -11 -4 -5 -9 5 -10
10 -2 18 7 7 4 19 -10 38 -11 16 -18 33 -15 38 4 5 1 11 -6 13 -10 4 -17 23
-20 56 -1 6 -6 12 -12 12 -6 0 -6 4 1 11 14 14 -5 61 -21 52 -7 -3 -6 -1 1 7
9 10 7 17 -10 31 -21 18 -21 19 -2 13 20 -6 20 -5 1 10 -15 12 -16 16 -5 17 8
0 6 4 -6 9 -11 5 -14 9 -7 9 7 1 10 6 7 11 -4 6 -12 7 -18 3 -7 -4 -6 0 2 10
11 14 11 18 -2 23 -9 3 -13 13 -10 25 3 12 0 19 -8 19 -11 0 -11 2 1 10 12 8
12 10 1 10 -8 0 -11 7 -8 20 3 10 2 19 -2 18 -18 -2 -22 4 -11 17 10 12 9 16
-5 21 -13 5 -14 9 -3 15 10 7 11 9 0 9 -7 0 -10 5 -7 10 3 6 1 10 -6 10 -6 0
-9 8 -6 20 4 14 0 20 -11 20 -13 0 -12 3 4 16 10 8 14 13 7 10 -6 -4 -14 -2
-18 4 -3 5 -1 10 5 10 6 0 8 5 5 10 -4 6 -11 8 -16 5 -5 -3 -6 2 -2 11 5 13 3
15 -8 9 -8 -5 -6 1 5 13 18 21 18 21 -3 17 -25 -5 -26 -1 -5 19 14 15 13 16
-8 17 -13 0 -17 3 -10 6 6 2 12 11 12 19 0 10 -5 12 -12 8 -8 -5 -7 0 2 11 12
15 12 17 1 10 -11 -6 -13 -4 -8 8 3 10 2 17 -2 17 -5 0 -7 9 -4 20 3 12 0 20
-6 20 -7 0 -9 -5 -5 -12 5 -7 3 -8 -5 -3 -9 5 -9 11 -3 17 7 7 7 19 2 33 -5
13 -6 26 -2 31 4 4 -2 4 -12 0 -19 -7 -19 -6 -2 13 17 19 17 19 -6 15 -12 -2
-17 -2 -10 2 6 3 12 12 12 20 0 9 -5 12 -11 8 -7 -4 -9 0 -5 13 3 10 0 28 -8
38 -10 14 -11 24 -4 32 7 9 7 13 -2 13 -7 0 -10 8 -7 20 3 11 -1 27 -10 35
-11 12 -11 15 -1 15 10 0 9 3 -2 10 -13 9 -13 10 0 10 13 0 13 2 1 9 -8 5 -11
16 -8 26 4 9 3 14 -2 11 -5 -3 -12 1 -15 10 -3 8 -2 13 2 10 5 -3 9 1 9 9 0 8
-4 12 -9 9 -8 -5 -9 1 -12 53 0 12 -10 29 -21 37 -19 15 -19 15 5 10 14 -2 19
-2 12 2 -6 3 -10 10 -6 15 3 5 0 9 -6 9 -6 0 -8 5 -5 10 3 6 0 10 -7 10 -9 0
-9 3 2 10 12 8 12 10 1 10 -11 0 -11 3 0 17 10 11 10 14 2 9 -12 -6 -15 0 -12
20 0 4 -5 11 -13 15 -11 7 -11 9 0 9 10 0 9 4 -3 16 -13 14 -14 19 -3 25 8 6
9 9 1 9 -6 0 -10 13 -9 30 1 17 -1 30 -5 30 -4 0 -9 8 -11 18 -6 21 27 48 37
32 3 -6 11 -10 17 -10 6 0 5 7 -3 17 -12 16 -12 17 2 6 9 -7 20 -9 24 -5 5 4
5 1 1 -5 -4 -8 -1 -13 9 -13 10 0 13 5 9 13 -4 6 3 3 16 -8 16 -14 24 -16 27
-7 3 6 9 12 14 12 6 0 8 -4 5 -8 -3 -5 1 -9 9 -9 8 0 15 7 16 16 0 12 3 11 9
-4 5 -11 9 -14 9 -8 1 9 8 10 26 3 17 -7 25 -6 25 1 0 7 6 6 17 -2 15 -13 15
-12 3 11 -12 23 -12 24 4 11 14 -12 16 -12 10 2 -3 9 -14 19 -23 22 -10 3 -24
17 -31 30 -10 19 -16 22 -22 13 -5 -9 -8 -8 -8 5 0 10 -5 15 -11 12 -13 -8
-49 23 -49 42 0 8 -4 11 -10 8 -5 -3 -10 -1 -10 5 0 6 -4 8 -10 5 -5 -3 -10 1
-10 10 0 12 -5 15 -16 11 -11 -4 -15 -2 -11 8 3 8 -2 20 -11 28 -13 11 -15 11
-7 -2 4 -8 -1 -6 -12 5 -11 11 -18 24 -15 29 3 5 -2 6 -12 3 -9 -4 -14 -3 -11
2 3 5 1 12 -5 16 -6 4 -7 12 -3 18 4 7 -2 5 -12 -3 -14 -11 -17 -12 -10 -1 5
9 0 19 -16 31 -20 16 -21 20 -10 34 12 14 11 20 -10 43 -16 19 -18 23 -5 13
18 -13 19 -13 14 1 -4 9 -1 22 5 29 9 10 9 11 0 6 -14 -8 -18 6 -6 18 4 3 8
23 9 42 1 26 -1 32 -8 23 -10 -14 -7 -2 9 38 5 12 3 14 -7 8 -10 -6 -11 -4 -4
6 13 22 14 43 1 51 -8 5 -6 8 5 8 15 0 16 4 8 26 -6 14 -6 23 -1 20 5 -3 11 1
15 9 3 8 0 17 -6 21 -7 5 -8 2 -3 -7 5 -8 4 -10 0 -6 -12 10 -15 38 -4 31 5
-3 9 -2 10 3 0 4 2 18 3 31 2 12 -2 22 -8 22 -6 0 -5 4 3 9 7 5 10 14 7 20 -4
6 -1 11 6 11 11 0 10 2 0 9 -11 7 -10 9 3 14 12 5 14 11 5 26 -7 14 -7 22 1
27 8 4 7 9 -2 15 -8 5 -9 9 -3 9 7 0 12 28 13 73 3 105 3 107 21 98 8 -5 21
-6 28 -4 6 3 12 0 12 -7 0 -6 5 -8 13 -4 9 6 9 5 -1 -8 -16 -20 7 -45 26 -26
9 9 11 7 8 -8 -3 -14 2 -20 15 -21 10 -1 21 3 24 8 4 5 11 6 17 3 6 -4 8 -2 4
4 -3 5 0 13 6 15 10 4 10 6 1 6 -8 1 -13 14 -13 32 0 19 -4 28 -11 23 -8 -5
-8 -1 0 14 6 12 7 22 1 24 -5 2 -11 19 -13 38 -2 19 -8 45 -15 56 -6 12 -8 24
-5 28 3 3 0 6 -8 6 -11 0 -11 2 1 10 11 7 12 10 2 10 -9 0 -11 7 -7 21 5 15 4
19 -4 14 -8 -5 -10 1 -5 19 4 17 2 26 -6 26 -8 0 -10 9 -6 26 5 18 3 24 -5 19
-8 -5 -9 -1 -4 15 5 16 4 20 -5 15 -9 -6 -9 -3 -1 13 8 15 8 23 0 28 -8 4 -7
9 2 15 11 7 10 9 -4 9 -14 0 -16 4 -7 19 8 16 6 23 -12 36 l-23 17 25 -7 c24
-7 24 -7 5 9 -11 8 -16 16 -12 16 4 0 3 9 -3 19 -7 14 -6 21 3 24 7 4 6 6 -5
6 -10 1 -15 8 -13 19 1 9 -2 27 -6 40 -6 16 -6 21 2 16 8 -5 8 -1 0 13 -6 11
-7 23 -4 27 3 3 -2 6 -13 7 -18 0 -18 1 1 9 11 5 14 9 8 9 -8 1 -13 14 -13 31
0 17 -5 30 -12 30 -9 0 -8 4 2 10 12 8 12 10 1 10 -8 0 -11 3 -8 6 3 4 2 15
-3 25 -7 12 -6 19 1 21 8 3 6 10 -5 21 -10 9 -15 17 -11 17 3 0 0 10 -6 23
-12 21 -11 21 6 7 17 -14 17 -14 5 7 -8 12 -19 19 -25 15 -5 -3 -4 2 4 11 9
12 10 17 2 17 -7 0 -10 4 -6 9 3 5 -2 16 -10 24 -11 12 -12 17 -2 20 9 4 8 6
-2 6 -11 1 -11 4 0 18 10 11 10 14 2 9 -9 -5 -13 1 -13 19 0 18 -4 24 -12 19
-9 -5 -9 -2 1 9 10 13 10 17 1 17 -9 0 -9 4 1 17 12 14 12 16 0 8 -11 -6 -13
-3 -9 13 4 12 2 25 -4 28 -5 3 -7 15 -5 26 4 13 1 18 -8 15 -8 -4 -11 1 -8 13
3 10 0 21 -6 24 -7 4 -7 15 -1 31 8 21 6 23 -12 20 -17 -4 -19 -2 -10 7 15 15
16 42 2 33 -5 -3 -10 -2 -10 4 0 5 6 12 13 14 10 4 10 6 0 6 -7 1 -13 8 -13
16 0 8 -5 15 -11 15 -8 0 -8 5 1 15 9 10 9 15 1 15 -6 0 -10 6 -8 13 1 6 -3
11 -9 10 -6 -1 -11 4 -11 12 0 8 4 12 9 9 14 -9 9 6 -7 23 -10 9 -13 23 -9 35
4 14 2 18 -5 14 -9 -6 -14 19 -10 50 0 4 -5 10 -11 14 -7 4 -12 24 -13 44 -1
24 -4 32 -10 23 -6 -8 -7 -5 -4 10 4 16 1 20 -10 16 -13 -5 -13 -2 -4 16 10
17 9 22 -4 27 -12 5 -13 9 -4 20 10 12 9 13 -5 8 -9 -4 -16 -3 -15 2 5 26 -2
45 -13 38 -10 -6 -10 -5 -1 7 9 11 8 18 -1 31 -7 10 -16 16 -19 13 -4 -3 -5
-2 -2 2 3 3 -1 13 -8 21 -10 13 -9 14 2 7 11 -6 13 -4 8 9 -4 10 -7 20 -7 22
0 3 -6 2 -12 -2 -8 -5 -7 0 2 11 8 10 10 16 5 13 -6 -4 -17 -3 -25 3 -8 5 -10
9 -4 9 6 0 11 7 11 15 0 8 -4 12 -9 9 -4 -3 -8 4 -8 16 0 14 -4 19 -12 14 -8
-5 -7 0 2 11 12 15 12 17 1 10 -11 -6 -13 -4 -8 9 4 9 3 14 -2 11 -5 -3 -12
-1 -16 5 -3 5 -2 10 3 10 6 0 5 10 -1 24 -7 13 -15 22 -20 19 -5 -3 -8 3 -7
13 4 34 0 45 -12 38 -8 -5 -9 0 -5 15 4 17 2 20 -7 12 -8 -7 -12 -5 -14 7 -5
43 -10 56 -27 68 -14 11 -15 14 -4 15 8 0 6 4 -6 8 -11 4 -20 14 -21 22 0 8
-2 22 -2 33 -1 12 -7 16 -17 12 -8 -3 -15 -1 -15 4 0 6 6 10 13 10 7 1 5 6 -5
14 -13 9 -14 16 -6 24 9 9 6 10 -10 7 -23 -4 -31 10 -9 18 10 4 10 6 0 6 -7 1
-13 8 -13 17 0 8 -4 12 -10 9 -5 -3 -10 3 -10 14 0 12 -6 21 -12 21 -10 0 -10
2 0 9 11 6 10 10 -3 15 -10 3 -15 12 -11 21 3 9 -3 20 -14 27 -11 7 -20 21
-20 31 0 10 -4 15 -10 12 -5 -3 -10 3 -10 15 0 14 -4 19 -12 14 -8 -5 -7 0 2
11 9 11 10 16 3 11 -8 -4 -13 -1 -13 9 0 9 -4 14 -8 11 -13 -8 -7 33 6 46 7 7
12 8 12 4 0 -5 12 0 28 10 18 11 23 13 15 3 -10 -12 -8 -15 7 -15 10 0 16 4
14 8 -3 4 2 8 10 8 9 0 16 6 16 13 0 8 4 7 10 -3 8 -12 10 -12 10 -1 0 8 3 11
7 8 3 -4 12 1 20 11 14 16 14 16 8 -2 -6 -19 -5 -19 15 -1 11 10 23 15 27 12
8 -9 34 13 28 23 -3 5 4 6 15 3 12 -3 20 0 20 6 0 7 5 9 10 6 6 -3 10 -1 10 6
0 7 3 9 7 5 4 -3 13 4 21 16 11 19 12 20 8 3 -6 -19 -5 -19 8 -2 7 9 19 17 26
17 7 0 10 6 7 14 -4 10 0 13 14 11 17 -4 19 -2 8 11 -10 12 -9 13 6 8 13 -5
16 -4 11 4 -7 11 6 17 28 13 5 -1 4 5 -4 13 -9 12 -9 16 -1 16 7 0 9 4 6 10
-4 6 1 7 11 3 12 -4 15 -3 10 5 -4 7 -2 12 6 12 9 0 9 3 -2 10 -13 8 -13 10 2
10 9 0 20 5 24 12 4 7 3 8 -4 4 -8 -5 -10 -2 -6 8 3 9 9 15 12 14 20 -2 25 3
12 12 -13 8 -13 10 2 10 9 0 20 5 24 12 4 7 3 8 -4 4 -7 -4 -12 -3 -12 3 0 5
8 15 18 20 9 6 13 11 9 11 -5 0 0 12 11 28 10 15 17 33 14 41 -2 8 0 11 6 7 5
-3 13 1 16 10 3 8 2 12 -4 9 -5 -3 -3 7 5 22 8 15 15 36 15 45 0 12 5 16 18
12 10 -4 13 -3 6 3 -6 4 -13 16 -17 25 -4 12 -2 15 9 11 17 -6 19 13 3 23 -16
9 17 27 34 19 6 -4 4 0 -5 8 -14 11 -15 16 -5 27 10 10 9 11 -2 5 -9 -5 -12
-4 -7 3 4 7 15 12 24 13 14 0 13 2 -3 9 -11 5 -15 9 -8 9 7 1 10 8 6 18 -4 9
-2 14 3 11 5 -4 10 18 10 48 1 35 -2 51 -9 47 -6 -4 -7 -1 -3 6 5 7 15 10 24
6 12 -4 12 -1 -4 16 -10 12 -13 19 -6 15 6 -4 12 -4 13 1 0 4 2 16 4 26 2 9
-1 15 -6 11 -12 -7 -11 3 2 28 6 11 7 18 1 14 -5 -3 -9 6 -9 19 0 14 3 28 8
31 5 3 9 11 9 17 0 7 -4 6 -10 -3 -8 -13 -10 -12 -10 3 0 11 -4 15 -12 11 -7
-4 -8 -3 -4 5 4 6 11 9 16 6 4 -3 7 3 5 12 -2 10 -4 22 -4 26 -1 5 -7 5 -13 1
-10 -6 -10 -4 0 7 15 16 16 33 0 23 -7 -5 -8 -3 -2 7 14 23 13 38 -3 32 -13
-5 -13 -2 -4 15 9 16 8 24 -4 36 -16 16 -20 30 -6 22 5 -4 8 1 7 10 -1 8 -9
20 -17 25 -11 7 -11 9 -1 9 7 0 10 5 7 10 -4 6 -12 7 -18 4 -7 -4 -9 -4 -5 1
4 4 3 14 -4 22 -9 11 -7 12 8 7 18 -5 18 -5 0 10 -10 8 -15 19 -11 25 3 6 1
11 -4 11 -6 0 -11 6 -11 14 0 8 -6 17 -12 19 -10 4 -10 6 1 6 9 1 8 6 -6 19
-10 9 -13 13 -6 8 23 -15 14 0 -22 40 -19 21 -35 44 -35 52 0 8 -5 10 -12 6
-10 -6 -10 -5 0 8 10 13 9 18 -5 29 -15 12 -16 12 -8 -1 8 -13 6 -13 -8 -1 -9
7 -14 17 -11 22 3 5 -2 9 -11 9 -12 0 -15 6 -10 23 4 15 3 18 -3 9 -7 -11 -12
-10 -26 3 -9 9 -14 21 -11 26 3 4 -6 11 -20 15 -14 3 -24 9 -21 11 7 7 -20 33
-33 33 -6 0 -11 5 -11 11 0 6 -7 9 -14 6 -10 -4 -13 -1 -9 9 3 9 -1 14 -12 14
-10 0 -13 5 -9 12 5 8 2 9 -9 5 -11 -4 -17 -1 -17 7 0 8 -7 16 -14 19 -11 4
-13 1 -10 -11 5 -15 4 -15 -6 1 -6 10 -16 14 -23 10 -7 -4 -5 2 3 13 8 10 11
16 6 12 -5 -4 -18 -3 -29 3 -14 8 -18 8 -12 -1 5 -8 0 -7 -14 2 -12 7 -21 16
-21 19 0 4 -7 10 -16 13 -10 4 -13 2 -8 -7 4 -6 -2 -4 -13 6 -11 10 -24 17
-29 16 -19 -3 -35 1 -30 9 3 5 -1 9 -9 9 -8 0 -12 -4 -10 -8 9 -13 -26 -3 -45
14 -14 12 -20 13 -21 4 0 -6 -4 -3 -9 8 -8 19 -9 19 -9 1 -1 -20 -1 -20 -17 0
-8 10 -12 12 -8 4 7 -13 5 -13 -8 -2 -13 10 -17 10 -21 0 -4 -11 -6 -10 -6 0
-1 7 -5 10 -11 7 -5 -3 -10 0 -10 7 0 9 -3 9 -10 -2 -8 -13 -10 -13 -10 0 0
11 -3 11 -12 2 -7 -7 -17 -12 -22 -12 -6 0 -4 5 4 10 12 8 10 10 -10 10 -15 0
-32 -6 -39 -12 -9 -8 -11 -8 -8 -2 4 7 0 15 -9 18 -8 3 -12 2 -9 -4 3 -6 1
-10 -4 -10 -6 0 -11 6 -11 13 0 7 -8 3 -17 -8 -12 -15 -14 -16 -10 -3 3 9 0
19 -9 22 -8 3 -13 2 -10 -3 3 -5 -1 -11 -9 -15 -8 -3 -17 0 -21 6 -5 7 -2 8 7
3 8 -5 10 -4 6 0 -10 12 -38 15 -31 4 6 -11 -9 -12 -20 -2 -11 11 -37 12 -30
1 4 -6 -2 -8 -16 -3 -17 5 -21 4 -16 -6 4 -8 0 -5 -8 5 -9 11 -16 15 -16 9 0
-6 -7 -14 -16 -17 -8 -3 -13 -2 -10 3 13 20 -24 18 -39 -2z m-1735 -241 c0 -2
-8 -10 -17 -17 -16 -13 -17 -12 -4 4 13 16 21 21 21 13z m-4220 -226 c0 -5 -5
-10 -11 -10 -5 0 -7 5 -4 10 3 6 8 10 11 10 2 0 4 -4 4 -10z m4660 -26 c0 -8
-19 -13 -24 -6 -3 5 1 9 9 9 8 0 15 -2 15 -3z m1925 -1614 c3 -6 -1 -7 -9 -4
-18 7 -21 14 -7 14 6 0 13 -4 16 -10z m160 -309 c3 -5 2 -12 -3 -15 -5 -3 -9
1 -9 9 0 17 3 19 12 6z m535 -2231 c0 -5 -2 -10 -4 -10 -3 0 -8 5 -11 10 -3 6
-1 10 4 10 6 0 11 -4 11 -10z m-90 -740 c0 -5 -2 -10 -4 -10 -3 0 -8 5 -11 10
-3 6 -1 10 4 10 6 0 11 -4 11 -10z m434 -1806 c3 -8 2 -12 -4 -9 -6 3 -10 10
-10 16 0 14 7 11 14 -7z m61 -174 c3 -5 1 -10 -4 -10 -6 0 -11 5 -11 10 0 6 2
10 4 10 3 0 8 -4 11 -10z"/>
<path d="M3840 7589 c0 -5 5 -7 10 -4 6 3 10 8 10 11 0 2 -4 4 -10 4 -5 0 -10
-5 -10 -11z"/>
<path d="M3510 7499 c0 -5 5 -7 10 -4 6 3 10 8 10 11 0 2 -4 4 -10 4 -5 0 -10
-5 -10 -11z"/>
<path d="M1190 6339 c0 -5 5 -7 10 -4 6 3 10 8 10 11 0 2 -4 4 -10 4 -5 0 -10
-5 -10 -11z"/>
<path d="M7505 6241 c-3 -5 -2 -12 3 -15 5 -3 9 1 9 9 0 17 -3 19 -12 6z"/>
<path d="M7530 6240 c0 -5 5 -10 11 -10 5 0 7 5 4 10 -3 6 -8 10 -11 10 -2 0
-4 -4 -4 -10z"/>
<path d="M1702 5914 c-7 -8 -8 -14 -3 -14 10 0 25 19 20 25 -2 1 -10 -3 -17
-11z"/>
<path d="M750 3799 c0 -5 5 -7 10 -4 6 3 10 8 10 11 0 2 -4 4 -10 4 -5 0 -10
-5 -10 -11z"/>
<path d="M736 3487 c3 -10 9 -15 12 -12 3 3 0 11 -7 18 -10 9 -11 8 -5 -6z"/>
<path d="M8380 2566 c0 -2 8 -10 18 -17 15 -13 16 -12 3 4 -13 16 -21 21 -21
13z"/>
<path d="M235 1160 c-3 -5 -1 -10 4 -10 6 0 11 5 11 10 0 6 -2 10 -4 10 -3 0
-8 -4 -11 -10z"/>
</g>
</svg>
